<?xml version="1.0" encoding="UTF-8"?>
<svg width="142px" height="48px" viewBox="0 0 142 48" version="1.1" xmlns="http://www.w3.org/2000/svg" xmlns:xlink="http://www.w3.org/1999/xlink">
    <!-- Generator: Sketch 50 (54983) - http://www.bohemiancoding.com/sketch -->
    <title>Group 26</title>
    <desc>Created with Sketch.</desc>
    <defs></defs>
    <g id="Design" stroke="none" stroke-width="1" fill="none" fill-rule="evenodd">
        <g id="Home" transform="translate(-441.000000, -1201.000000)">
            <g id="Group-26" transform="translate(442.000000, 1202.000000)">
                <rect id="Rectangle-3" stroke="#4886FF" x="-0.5" y="-0.5" width="141" height="47" rx="2"></rect>
                <path d="M13.2924099,8 C12.0263469,8 11,9.1216205 11,10.5106012 L11,36.4893988 C11,37.8759656 12.0252116,39 13.2924099,39 L24.7075901,39 C25.9736531,39 27,37.8783795 27,36.4893988 L27,10.5106012 C27,9.12403444 25.9747884,8 24.7075901,8 L13.2924099,8 L13.2924099,8 Z M12.5,12.0655738 L12.5,34.9344262 L25.5,34.9344262 L25.5,12.0655738 L12.5,12.0655738 L12.5,12.0655738 Z M19,37.9836066 C19.5522847,37.9836066 20,37.5285517 20,36.9672131 C20,36.4058745 19.5522847,35.9508197 19,35.9508197 C18.4477153,35.9508197 18,36.4058745 18,36.9672131 C18,37.5285517 18.4477153,37.9836066 19,37.9836066 L19,37.9836066 Z M17,10.0327869 C17,10.3134562 17.171875,10.5409836 17.398159,10.5409836 L20.601841,10.5409836 C20.8217381,10.5409836 21,10.3052478 21,10.0327869 C21,9.75211759 20.828125,9.52459016 20.601841,9.52459016 L17.398159,9.52459016 C17.1782619,9.52459016 17,9.76032595 17,10.0327869 Z" id="iPhone-Vector" fill="#4886FF"></path>
                <path d="M43.328,16.436 C43.3600002,16.5000003 43.376,16.5679996 43.376,16.64 C43.376,16.7600006 43.3300005,16.8599996 43.238,16.94 C43.1459995,17.0200004 43.0360006,17.06 42.908,17.06 C42.707999,17.06 42.5680004,16.964001 42.488,16.772 L41.636,14.828 L37.112,14.828 L36.248,16.772 C36.1679996,16.964001 36.028001,17.06 35.828,17.06 C35.6999994,17.06 35.5880005,17.0180004 35.492,16.934 C35.3959995,16.8499996 35.348,16.7480006 35.348,16.628 C35.348,16.5639997 35.3639998,16.5000003 35.396,16.436 L38.828,8.804 C38.8760002,8.69199944 38.9479995,8.60800028 39.044,8.552 C39.1400005,8.49599972 39.2439994,8.468 39.356,8.468 C39.4760006,8.468 39.5839995,8.4979997 39.68,8.558 C39.7760005,8.6180003 39.8479998,8.69999948 39.896,8.804 L43.328,16.436 Z M37.472,14.012 L41.276,14.012 L39.368,9.704 L37.472,14.012 Z M48.8,11.336 C48.8880004,11.143999 49.027999,11.048 49.22,11.048 C49.3400006,11.048 49.4479995,11.0879996 49.544,11.168 C49.6400005,11.2480004 49.688,11.3479994 49.688,11.468 C49.688,11.5400004 49.6720002,11.6039997 49.64,11.66 L47.3,16.7 C47.2519998,16.8040005 47.1800005,16.8859997 47.084,16.946 C46.9879995,17.0060003 46.8840006,17.036 46.772,17.036 C46.6679995,17.036 46.5680005,17.0060003 46.472,16.946 C46.3759995,16.8859997 46.3000003,16.8040005 46.244,16.7 L43.916,11.66 C43.8839998,11.6039997 43.868,11.5440003 43.868,11.48 C43.868,11.3599994 43.9219995,11.2560004 44.03,11.168 C44.1380005,11.0799996 44.2559994,11.036 44.384,11.036 C44.4640004,11.036 44.5419996,11.0599998 44.618,11.108 C44.6940004,11.1560002 44.7519998,11.2239996 44.792,11.312 L46.796,15.812 L48.8,11.336 Z M53.276,11.012 C54.7400073,11.012 55.472,11.7799923 55.472,13.316 L55.472,16.58 C55.472,16.7240007 55.4300004,16.8399996 55.346,16.928 C55.2619996,17.0160004 55.1480007,17.06 55.004,17.06 C54.8599993,17.06 54.7440004,17.0160004 54.656,16.928 C54.5679995,16.8399996 54.524,16.7240007 54.524,16.58 L54.524,16.004 C54.3719992,16.3480017 54.1400015,16.6139991 53.828,16.802 C53.5159984,16.9900009 53.156002,17.084 52.748,17.084 C52.3719981,17.084 52.0260016,17.0080008 51.71,16.856 C51.3939984,16.7039992 51.1440009,16.4920014 50.96,16.22 C50.7759991,15.9479986 50.684,15.6480016 50.684,15.32 C50.684,14.8799978 50.7959989,14.5380012 51.02,14.294 C51.2440011,14.0499988 51.6119974,13.8740005 52.124,13.766 C52.6360025,13.6579995 53.3479954,13.604 54.26,13.604 L54.524,13.604 L54.524,13.208 C54.524,12.7279976 54.426001,12.3760011 54.23,12.152 C54.033999,11.9279989 53.7160022,11.816 53.276,11.816 C52.7319973,11.816 52.1800028,11.9639985 51.62,12.26 C51.4039989,12.3960007 51.2520004,12.464 51.164,12.464 C51.0679995,12.464 50.9880003,12.4280004 50.924,12.356 C50.8599997,12.2839996 50.828,12.1920006 50.828,12.08 C50.828,11.9679994 50.8619996,11.8700004 50.93,11.786 C50.9980003,11.7019996 51.1079992,11.6160004 51.26,11.528 C51.5400014,11.3679992 51.8579982,11.2420005 52.214,11.15 C52.5700018,11.0579995 52.9239982,11.012 53.276,11.012 Z M52.88,16.316 C53.3600024,16.316 53.7539984,16.1540016 54.062,15.83 C54.3700015,15.5059984 54.524,15.0880026 54.524,14.576 L54.524,14.228 L54.308,14.228 C53.6039965,14.228 53.0680018,14.2579997 52.7,14.318 C52.3319981,14.3780003 52.0700008,14.4779993 51.914,14.618 C51.7579992,14.7580007 51.68,14.9639986 51.68,15.236 C51.68,15.5480016 51.7939988,15.805999 52.022,16.01 C52.2500011,16.214001 52.5359983,16.316 52.88,16.316 Z M57.98,17.06 C57.8359993,17.06 57.7180004,17.0180004 57.626,16.934 C57.5339995,16.8499996 57.488,16.7320008 57.488,16.58 L57.488,11.516 C57.488,11.3639992 57.5339995,11.2460004 57.626,11.162 C57.7180004,11.0779996 57.8359993,11.036 57.98,11.036 C58.1240007,11.036 58.2399995,11.0779996 58.328,11.162 C58.4160004,11.2460004 58.46,11.3639992 58.46,11.516 L58.46,16.58 C58.46,16.7400008 58.4160004,16.8599996 58.328,16.94 C58.2399995,17.0200004 58.1240007,17.06 57.98,17.06 Z M57.98,9.776 C57.787999,9.776 57.6320006,9.72000056 57.512,9.608 C57.3919994,9.49599944 57.332,9.34800092 57.332,9.164 C57.332,8.98799912 57.3919994,8.84400056 57.512,8.732 C57.6320006,8.61999944 57.787999,8.564 57.98,8.564 C58.1720009,8.564 58.3279994,8.61999944 58.448,8.732 C58.5680006,8.84400056 58.628,8.98799912 58.628,9.164 C58.628,9.34800092 58.5680006,9.49599944 58.448,9.608 C58.3279994,9.72000056 58.1720009,9.776 57.98,9.776 Z M61.004,17.06 C60.8599993,17.06 60.7420004,17.0180004 60.65,16.934 C60.5579995,16.8499996 60.512,16.7320008 60.512,16.58 L60.512,8.96 C60.512,8.80799924 60.5579995,8.69000042 60.65,8.606 C60.7420004,8.52199958 60.8599993,8.48 61.004,8.48 C61.1400007,8.48 61.2539995,8.52199958 61.346,8.606 C61.4380004,8.69000042 61.484,8.80799924 61.484,8.96 L61.484,16.58 C61.484,16.7320008 61.4380004,16.8499996 61.346,16.934 C61.2539995,17.0180004 61.1400007,17.06 61.004,17.06 Z M65.924,11.012 C67.3880073,11.012 68.12,11.7799923 68.12,13.316 L68.12,16.58 C68.12,16.7240007 68.0780004,16.8399996 67.994,16.928 C67.9099996,17.0160004 67.7960007,17.06 67.652,17.06 C67.5079993,17.06 67.3920004,17.0160004 67.304,16.928 C67.2159995,16.8399996 67.172,16.7240007 67.172,16.58 L67.172,16.004 C67.0199992,16.3480017 66.7880015,16.6139991 66.476,16.802 C66.1639984,16.9900009 65.804002,17.084 65.396,17.084 C65.0199981,17.084 64.6740016,17.0080008 64.358,16.856 C64.0419984,16.7039992 63.7920009,16.4920014 63.608,16.22 C63.4239991,15.9479986 63.332,15.6480016 63.332,15.32 C63.332,14.8799978 63.4439989,14.5380012 63.668,14.294 C63.8920011,14.0499988 64.2599974,13.8740005 64.772,13.766 C65.2840025,13.6579995 65.9959954,13.604 66.908,13.604 L67.172,13.604 L67.172,13.208 C67.172,12.7279976 67.074001,12.3760011 66.878,12.152 C66.681999,11.9279989 66.3640022,11.816 65.924,11.816 C65.3799973,11.816 64.8280028,11.9639985 64.268,12.26 C64.0519989,12.3960007 63.9000004,12.464 63.812,12.464 C63.7159995,12.464 63.6360003,12.4280004 63.572,12.356 C63.5079997,12.2839996 63.476,12.1920006 63.476,12.08 C63.476,11.9679994 63.5099996,11.8700004 63.578,11.786 C63.6460003,11.7019996 63.7559992,11.6160004 63.908,11.528 C64.1880014,11.3679992 64.5059982,11.2420005 64.862,11.15 C65.2180018,11.0579995 65.5719982,11.012 65.924,11.012 Z M65.528,16.316 C66.0080024,16.316 66.4019984,16.1540016 66.71,15.83 C67.0180015,15.5059984 67.172,15.0880026 67.172,14.576 L67.172,14.228 L66.956,14.228 C66.2519965,14.228 65.7160018,14.2579997 65.348,14.318 C64.9799981,14.3780003 64.7180008,14.4779993 64.562,14.618 C64.4059992,14.7580007 64.328,14.9639986 64.328,15.236 C64.328,15.5480016 64.4419988,15.805999 64.67,16.01 C64.8980011,16.214001 65.1839983,16.316 65.528,16.316 Z M73.076,11.012 C73.5880025,11.012 74.039998,11.1359988 74.432,11.384 C74.8240019,11.6320012 75.1279989,11.9839977 75.344,12.44 C75.560001,12.8960023 75.668,13.423997 75.668,14.024 C75.668,14.632003 75.560001,15.1659977 75.344,15.626 C75.1279989,16.0860023 74.8240019,16.4439987 74.432,16.7 C74.039998,16.9560013 73.5880025,17.084 73.076,17.084 C72.6199977,17.084 72.2220017,16.984001 71.882,16.784 C71.5419983,16.583999 71.2840008,16.3000018 71.108,15.932 L71.108,16.58 C71.108,16.7240007 71.0660004,16.8399996 70.982,16.928 C70.8979995,17.0160004 70.7800007,17.06 70.628,17.06 C70.4759992,17.06 70.3560004,17.0160004 70.268,16.928 C70.1799995,16.8399996 70.136,16.7240007 70.136,16.58 L70.136,8.948 C70.136,8.81199932 70.1799995,8.70000044 70.268,8.612 C70.3560004,8.52399956 70.4759992,8.48 70.628,8.48 C70.7800007,8.48 70.8979995,8.52199958 70.982,8.606 C71.0660004,8.69000042 71.108,8.80399928 71.108,8.948 L71.108,12.164 C71.2840008,11.7959982 71.5419983,11.512001 71.882,11.312 C72.2220017,11.111999 72.6199977,11.012 73.076,11.012 Z M72.884,16.28 C73.4520028,16.28 73.8919984,16.082002 74.204,15.686 C74.5160015,15.289998 74.672,14.7360036 74.672,14.024 C74.672,13.3279965 74.5160015,12.7880019 74.204,12.404 C73.8919984,12.0199981 73.4520028,11.828 72.884,11.828 C72.3159971,11.828 71.8780015,12.0199981 71.57,12.404 C71.2619984,12.7880019 71.108,13.3359964 71.108,14.048 C71.108,14.7600036 71.2619984,15.3099981 71.57,15.698 C71.8780015,16.0860019 72.3159971,16.28 72.884,16.28 Z M77.852,17.06 C77.7079992,17.06 77.5900004,17.0180004 77.498,16.934 C77.4059995,16.8499996 77.36,16.7320008 77.36,16.58 L77.36,8.96 C77.36,8.80799924 77.4059995,8.69000042 77.498,8.606 C77.5900004,8.52199958 77.7079992,8.48 77.852,8.48 C77.9880006,8.48 78.1019995,8.52199958 78.194,8.606 C78.2860004,8.69000042 78.332,8.80799924 78.332,8.96 L78.332,16.58 C78.332,16.7320008 78.2860004,16.8499996 78.194,16.934 C78.1019995,17.0180004 77.9880006,17.06 77.852,17.06 Z M84.908,15.644 C84.9960004,15.644 85.0719996,15.6799996 85.136,15.752 C85.2000003,15.8240004 85.232,15.9159994 85.232,16.028 C85.232,16.228001 85.0920014,16.4119992 84.812,16.58 C84.5239985,16.7480008 84.2200016,16.8739996 83.9,16.958 C83.5799984,17.0420004 83.2680015,17.084 82.964,17.084 C82.0599954,17.084 81.3460026,16.8160027 80.822,16.28 C80.2979973,15.7439973 80.036,15.0040047 80.036,14.06 C80.036,13.459997 80.1519988,12.9300023 80.384,12.47 C80.6160011,12.0099977 80.9419979,11.6520013 81.362,11.396 C81.7820021,11.1399987 82.2599973,11.012 82.796,11.012 C83.5560038,11.012 84.1599977,11.2599975 84.608,11.756 C85.0560022,12.2520025 85.28,12.9239958 85.28,13.772 C85.28,13.9320008 85.2480003,14.0479996 85.184,14.12 C85.1199996,14.1920004 85.0160007,14.228 84.872,14.228 L81.008,14.228 C81.0800003,15.6040069 81.7319938,16.292 82.964,16.292 C83.2760015,16.292 83.5439988,16.2500004 83.768,16.166 C83.9920011,16.0819996 84.2319987,15.9680007 84.488,15.824 C84.696001,15.7039994 84.8359996,15.644 84.908,15.644 Z M82.808,11.768 C82.2959974,11.768 81.8860015,11.9279984 81.578,12.248 C81.2699984,12.5680016 81.0880002,13.0199971 81.032,13.604 L84.428,13.604 C84.4119999,13.011997 84.2640014,12.5580016 83.984,12.242 C83.7039986,11.9259984 83.3120025,11.768 82.808,11.768 Z M92.7079999,17.084 C92.1559972,17.084 91.670002,16.9600012 91.2499999,16.712 C90.8299978,16.4639988 90.5060011,16.1100023 90.2779999,15.65 C90.0499988,15.1899977 89.9359999,14.656003 89.9359999,14.048 C89.9359999,13.439997 90.0499988,12.9060023 90.2779999,12.446 C90.5060011,11.9859977 90.8299978,11.6320012 91.2499999,11.384 C91.670002,11.1359988 92.1559972,11.012 92.7079999,11.012 C93.2600027,11.012 93.7479978,11.1359988 94.1719999,11.384 C94.5960021,11.6320012 94.9219988,11.9859977 95.1499999,12.446 C95.3780011,12.9060023 95.4919999,13.439997 95.4919999,14.048 C95.4919999,14.656003 95.3780011,15.1899977 95.1499999,15.65 C94.9219988,16.1100023 94.5960021,16.4639988 94.1719999,16.712 C93.7479978,16.9600012 93.2600027,17.084 92.7079999,17.084 Z M92.7079999,16.28 C93.2840028,16.28 93.7259984,16.0900019 94.0339999,15.71 C94.3420015,15.3299981 94.4959999,14.7760036 94.4959999,14.048 C94.4959999,13.3359964 94.3400015,12.7860019 94.0279999,12.398 C93.7159984,12.0099981 93.2760028,11.816 92.7079999,11.816 C92.1399971,11.816 91.7000015,12.0099981 91.3879999,12.398 C91.0759984,12.7860019 90.9199999,13.3359964 90.9199999,14.048 C90.9199999,14.7680036 91.0739984,15.3199981 91.3819999,15.704 C91.6900015,16.0880019 92.1319971,16.28 92.7079999,16.28 Z M100.124,11.012 C101.524007,11.012 102.224,11.7839923 102.224,13.328 L102.224,16.58 C102.224,16.7320008 102.182,16.8499996 102.098,16.934 C102.014,17.0180004 101.896001,17.06 101.744,17.06 C101.591999,17.06 101.472,17.0180004 101.384,16.934 C101.296,16.8499996 101.252,16.7320008 101.252,16.58 L101.252,13.388 C101.252,12.8439973 101.146001,12.4480012 100.934,12.2 C100.721999,11.9519988 100.384002,11.828 99.9199999,11.828 C99.3839973,11.828 98.9560015,11.9919984 98.6359999,12.32 C98.3159983,12.6480016 98.1559999,13.0919972 98.1559999,13.652 L98.1559999,16.58 C98.1559999,16.7320008 98.1140004,16.8499996 98.0299999,16.934 C97.9459995,17.0180004 97.8280007,17.06 97.6759999,17.06 C97.5239992,17.06 97.4040004,17.0180004 97.3159999,16.934 C97.2279995,16.8499996 97.1839999,16.7320008 97.1839999,16.58 L97.1839999,11.516 C97.1839999,11.3719993 97.2279995,11.2560004 97.3159999,11.168 C97.4040004,11.0799996 97.5239992,11.036 97.6759999,11.036 C97.8200007,11.036 97.9339995,11.0799996 98.0179999,11.168 C98.1020004,11.2560004 98.1439999,11.3679993 98.1439999,11.504 L98.1439999,12.116 C98.3360009,11.7559982 98.6039982,11.4820009 98.9479999,11.294 C99.2920017,11.1059991 99.6839977,11.012 100.124,11.012 Z M110.276,16.292 C110.556001,16.3160001 110.696,16.4439988 110.696,16.676 C110.696,16.8120007 110.646,16.9139997 110.546,16.982 C110.445999,17.0500003 110.296001,17.0760001 110.096,17.06 L109.772,17.036 C109.131997,16.9879998 108.660001,16.7960017 108.356,16.46 C108.051998,16.1239983 107.9,15.6160034 107.9,14.936 L107.9,11.924 L107.096,11.924 C106.959999,11.924 106.854,11.8900003 106.778,11.822 C106.702,11.7539997 106.664,11.6640006 106.664,11.552 C106.664,11.4319994 106.702,11.3360004 106.778,11.264 C106.854,11.1919996 106.959999,11.156 107.096,11.156 L107.9,11.156 L107.9,9.8 C107.9,9.64799924 107.943999,9.53000042 108.032,9.446 C108.12,9.36199958 108.239999,9.32 108.392,9.32 C108.536001,9.32 108.651999,9.36199958 108.74,9.446 C108.828,9.53000042 108.872,9.64799924 108.872,9.8 L108.872,11.156 L110.204,11.156 C110.332001,11.156 110.434,11.1919996 110.51,11.264 C110.586,11.3360004 110.624,11.4319994 110.624,11.552 C110.624,11.6640006 110.586,11.7539997 110.51,11.822 C110.434,11.8900003 110.332001,11.924 110.204,11.924 L108.872,11.924 L108.872,14.984 C108.872,15.4240022 108.961999,15.741999 109.142,15.938 C109.322001,16.134001 109.591998,16.2439999 109.952,16.268 L110.276,16.292 Z M114.848,11.012 C115.536003,11.012 116.055998,11.2059981 116.408,11.594 C116.760002,11.9820019 116.936,12.5599962 116.936,13.328 L116.936,16.58 C116.936,16.7320008 116.892,16.8499996 116.804,16.934 C116.715999,17.0180004 116.600001,17.06 116.456,17.06 C116.303999,17.06 116.184,17.0180004 116.096,16.934 C116.007999,16.8499996 115.964,16.7320008 115.964,16.58 L115.964,13.352 C115.964,12.8319974 115.858001,12.4480012 115.646,12.2 C115.433999,11.9519988 115.096002,11.828 114.632,11.828 C114.095997,11.828 113.668002,11.9919984 113.348,12.32 C113.027998,12.6480016 112.868,13.0919972 112.868,13.652 L112.868,16.58 C112.868,16.7320008 112.826,16.8499996 112.742,16.934 C112.658,17.0180004 112.540001,17.06 112.388,17.06 C112.235999,17.06 112.116,17.0180004 112.028,16.934 C111.939999,16.8499996 111.896,16.7320008 111.896,16.58 L111.896,8.948 C111.896,8.81199932 111.941999,8.70000044 112.034,8.612 C112.126,8.52399956 112.243999,8.48 112.388,8.48 C112.540001,8.48 112.658,8.52199958 112.742,8.606 C112.826,8.69000042 112.868,8.80399928 112.868,8.948 L112.868,12.092 C113.060001,11.7399982 113.327998,11.4720009 113.672,11.288 C114.016002,11.1039991 114.407998,11.012 114.848,11.012 Z M123.476,15.644 C123.564,15.644 123.64,15.6799996 123.704,15.752 C123.768,15.8240004 123.8,15.9159994 123.8,16.028 C123.8,16.228001 123.660001,16.4119992 123.38,16.58 C123.091998,16.7480008 122.788002,16.8739996 122.468,16.958 C122.147998,17.0420004 121.836001,17.084 121.532,17.084 C120.627995,17.084 119.914003,16.8160027 119.39,16.28 C118.865997,15.7439973 118.604,15.0040047 118.604,14.06 C118.604,13.459997 118.719999,12.9300023 118.952,12.47 C119.184001,12.0099977 119.509998,11.6520013 119.93,11.396 C120.350002,11.1399987 120.827997,11.012 121.364,11.012 C122.124004,11.012 122.727998,11.2599975 123.176,11.756 C123.624002,12.2520025 123.848,12.9239958 123.848,13.772 C123.848,13.9320008 123.816,14.0479996 123.752,14.12 C123.688,14.1920004 123.584001,14.228 123.44,14.228 L119.576,14.228 C119.648,15.6040069 120.299994,16.292 121.532,16.292 C121.844001,16.292 122.111999,16.2500004 122.336,16.166 C122.560001,16.0819996 122.799999,15.9680007 123.056,15.824 C123.264001,15.7039994 123.404,15.644 123.476,15.644 Z M121.376,11.768 C120.863997,11.768 120.454001,11.9279984 120.146,12.248 C119.837998,12.5680016 119.656,13.0199971 119.6,13.604 L122.996,13.604 C122.98,13.011997 122.832001,12.5580016 122.552,12.242 C122.271999,11.9259984 121.880002,11.768 121.376,11.768 Z" id="Available-on-the" fill="#4886FF"></path>
                <path d="M48.88,35.06 C48.9333336,35.1666672 48.96,35.2799994 48.96,35.4 C48.96,35.600001 48.8833341,35.766666 48.73,35.9 C48.5766659,36.033334 48.3933344,36.1 48.18,36.1 C47.846665,36.1 47.613334,35.9400016 47.48,35.62 L46.06,32.38 L38.52,32.38 L37.08,35.62 C36.946666,35.9400016 36.713335,36.1 36.38,36.1 C36.1666656,36.1 35.9800008,36.0300007 35.82,35.89 C35.6599992,35.7499993 35.58,35.580001 35.58,35.38 C35.58,35.2733328 35.6066664,35.1666672 35.66,35.06 L41.38,22.34 C41.4600004,22.1533324 41.5799992,22.0133338 41.74,21.92 C41.9000008,21.8266662 42.0733324,21.78 42.26,21.78 C42.460001,21.78 42.6399992,21.8299995 42.8,21.93 C42.9600008,22.0300005 43.0799996,22.1666658 43.16,22.34 L48.88,35.06 Z M39.12,31.02 L45.46,31.02 L42.28,23.84 L39.12,31.02 Z M55.2318528,26.02 C56.0851904,26.02 56.8385162,26.2333312 57.4918528,26.66 C58.1451894,27.0866688 58.651851,27.6833295 59.0118528,28.45 C59.3718546,29.2166705 59.5518528,30.1066616 59.5518528,31.12 C59.5518528,32.1333384 59.3718546,33.0166629 59.0118528,33.77 C58.651851,34.5233371 58.1485227,35.1066646 57.5018528,35.52 C56.8551829,35.9333354 56.0985238,36.14 55.2318528,36.14 C54.471849,36.14 53.8085223,35.973335 53.2418528,35.64 C52.6751833,35.306665 52.2451876,34.8333364 51.9518528,34.22 L51.9518528,38.92 C51.9518528,39.1600012 51.8818535,39.3499993 51.7418528,39.49 C51.6018521,39.6300007 51.4051874,39.7 51.1518528,39.7 C50.8985182,39.7 50.6985202,39.6266674 50.5518528,39.48 C50.4051854,39.3333326 50.3318528,39.1466678 50.3318528,38.92 L50.3318528,26.86 C50.3318528,26.6199988 50.4051854,26.4266674 50.5518528,26.28 C50.6985202,26.1333326 50.8985182,26.06 51.1518528,26.06 C51.4051874,26.06 51.6018521,26.1333326 51.7418528,26.28 C51.8818535,26.4266674 51.9518528,26.6199988 51.9518528,26.86 L51.9518528,27.94 C52.2451876,27.3266636 52.6751833,26.853335 53.2418528,26.52 C53.8085223,26.186665 54.471849,26.02 55.2318528,26.02 Z M54.9118528,34.8 C55.8585242,34.8 56.5918502,34.4800032 57.1118528,33.84 C57.6318554,33.1999968 57.8918528,32.2933392 57.8918528,31.12 C57.8918528,29.9466608 57.6318554,29.0300033 57.1118528,28.37 C56.5918502,27.7099967 55.8585242,27.38 54.9118528,27.38 C53.9651814,27.38 53.2351887,27.6999968 52.7218528,28.34 C52.2085169,28.9800032 51.9518528,29.8933274 51.9518528,31.08 C51.9518528,32.2666726 52.2085169,33.1833301 52.7218528,33.83 C53.2351887,34.4766699 53.9651814,34.8 54.9118528,34.8 Z M66.1637055,26.02 C67.0170431,26.02 67.7703689,26.2333312 68.4237055,26.66 C69.0770421,27.0866688 69.5837037,27.6833295 69.9437055,28.45 C70.3037073,29.2166705 70.4837055,30.1066616 70.4837055,31.12 C70.4837055,32.1333384 70.3037073,33.0166629 69.9437055,33.77 C69.5837037,34.5233371 69.0803754,35.1066646 68.4337055,35.52 C67.7870356,35.9333354 67.0303765,36.14 66.1637055,36.14 C65.4037017,36.14 64.740375,35.973335 64.1737055,35.64 C63.607036,35.306665 63.1770403,34.8333364 62.8837055,34.22 L62.8837055,38.92 C62.8837055,39.1600012 62.8137062,39.3499993 62.6737055,39.49 C62.5337048,39.6300007 62.3370401,39.7 62.0837055,39.7 C61.8303709,39.7 61.6303729,39.6266674 61.4837055,39.48 C61.3370381,39.3333326 61.2637055,39.1466678 61.2637055,38.92 L61.2637055,26.86 C61.2637055,26.6199988 61.3370381,26.4266674 61.4837055,26.28 C61.6303729,26.1333326 61.8303709,26.06 62.0837055,26.06 C62.3370401,26.06 62.5337048,26.1333326 62.6737055,26.28 C62.8137062,26.4266674 62.8837055,26.6199988 62.8837055,26.86 L62.8837055,27.94 C63.1770403,27.3266636 63.607036,26.853335 64.1737055,26.52 C64.740375,26.186665 65.4037017,26.02 66.1637055,26.02 Z M65.8437055,34.8 C66.7903769,34.8 67.5237029,34.4800032 68.0437055,33.84 C68.5637081,33.1999968 68.8237055,32.2933392 68.8237055,31.12 C68.8237055,29.9466608 68.5637081,29.0300033 68.0437055,28.37 C67.5237029,27.7099967 66.7903769,27.38 65.8437055,27.38 C64.8970341,27.38 64.1670414,27.6999968 63.6537055,28.34 C63.1403696,28.9800032 62.8837055,29.8933274 62.8837055,31.08 C62.8837055,32.2666726 63.1403696,33.1833301 63.6537055,33.83 C64.1670414,34.4766699 64.8970341,34.8 65.8437055,34.8 Z M81.3874111,36.16 C80.3874061,36.16 79.430749,36.0100015 78.5174111,35.71 C77.6040732,35.4099985 76.8740805,35.0066692 76.3274111,34.5 C76.1274101,34.3133324 76.0274111,34.0800014 76.0274111,33.8 C76.0274111,33.6133324 76.0807439,33.4500007 76.1874111,33.31 C76.2940783,33.1699993 76.4207437,33.1 76.5674111,33.1 C76.7407453,33.1 76.9274101,33.1733326 77.1274111,33.32 C78.3674173,34.2800048 79.7807365,34.76 81.3674111,34.76 C82.5140835,34.76 83.3940747,34.5400022 84.0074111,34.1 C84.6207475,33.6599978 84.9274111,33.0333374 84.9274111,32.22 C84.9274111,31.753331 84.7807459,31.3766681 84.4874111,31.09 C84.1940763,30.8033319 83.8074135,30.5733342 83.3274111,30.4 C82.8474087,30.2266658 82.2007485,30.0466676 81.3874111,29.86 C80.2940723,29.6066654 79.3974146,29.3400014 78.6974111,29.06 C77.9974076,28.7799986 77.4307466,28.3800026 76.9974111,27.86 C76.5640756,27.3399974 76.3474111,26.6600042 76.3474111,25.82 C76.3474111,25.019996 76.5640756,24.3100031 76.9974111,23.69 C77.4307466,23.0699969 78.0374072,22.5900017 78.8174111,22.25 C79.597415,21.9099983 80.4874061,21.74 81.4874111,21.74 C82.4207491,21.74 83.2907404,21.8833319 84.0974111,22.17 C84.9040818,22.4566681 85.5807417,22.866664 86.1274111,23.4 C86.3407455,23.6133344 86.4474111,23.8466654 86.4474111,24.1 C86.4474111,24.2866676 86.3940783,24.4499993 86.2874111,24.59 C86.1807439,24.7300007 86.0540785,24.8 85.9074111,24.8 C85.7607437,24.8 85.5674123,24.7266674 85.3274111,24.58 C84.6740745,24.046664 84.0674139,23.6733344 83.5074111,23.46 C82.9474083,23.2466656 82.2740817,23.14 81.4874111,23.14 C80.3807389,23.14 79.5207475,23.3699977 78.9074111,23.83 C78.2940747,24.2900023 77.9874111,24.9333292 77.9874111,25.76 C77.9874111,26.4666702 78.2574084,26.9966649 78.7974111,27.35 C79.3374138,27.7033351 80.1674055,28.013332 81.2874111,28.28 C82.5007505,28.5733348 83.4540743,28.8433321 84.1474111,29.09 C84.8407479,29.3366679 85.4174088,29.7066642 85.8774111,30.2 C86.3374134,30.6933358 86.5674111,31.3533292 86.5674111,32.18 C86.5674111,32.9666706 86.3507466,33.659997 85.9174111,34.26 C85.4840756,34.860003 84.8740817,35.326665 84.0874111,35.66 C83.3007405,35.993335 82.4007495,36.16 81.3874111,36.16 Z M92.7192639,34.82 C93.1859329,34.8600002 93.4192639,35.0733314 93.4192639,35.46 C93.4192639,35.6866678 93.3359314,35.8566661 93.1692639,35.97 C93.0025964,36.0833339 92.7525989,36.1266668 92.4192639,36.1 L91.8792639,36.06 C90.8125919,35.9799996 90.0259331,35.6600028 89.5192639,35.1 C89.0125947,34.5399972 88.7592639,33.693339 88.7592639,32.56 L88.7592639,27.54 L87.4192639,27.54 C87.1925961,27.54 87.0159312,27.4833339 86.8892639,27.37 C86.7625966,27.2566661 86.6992639,27.1066676 86.6992639,26.92 C86.6992639,26.719999 86.7625966,26.5600006 86.8892639,26.44 C87.0159312,26.3199994 87.1925961,26.26 87.4192639,26.26 L88.7592639,26.26 L88.7592639,24 C88.7592639,23.7466654 88.8325965,23.5500007 88.9792639,23.41 C89.1259313,23.2699993 89.3259293,23.2 89.5792639,23.2 C89.8192651,23.2 90.0125965,23.2699993 90.1592639,23.41 C90.3059313,23.5500007 90.3792639,23.7466654 90.3792639,24 L90.3792639,26.26 L92.5992639,26.26 C92.8125983,26.26 92.9825966,26.3199994 93.1092639,26.44 C93.2359312,26.5600006 93.2992639,26.719999 93.2992639,26.92 C93.2992639,27.1066676 93.2359312,27.2566661 93.1092639,27.37 C92.9825966,27.4833339 92.8125983,27.54 92.5992639,27.54 L90.3792639,27.54 L90.3792639,32.64 C90.3792639,33.373337 90.5292624,33.9033317 90.8292639,34.23 C91.1292654,34.5566683 91.5792609,34.7399998 92.1792639,34.78 L92.7192639,34.82 Z M98.3511166,36.14 C97.431112,36.14 96.6211201,35.9333354 95.9211166,35.52 C95.2211131,35.1066646 94.6811185,34.5166705 94.3011166,33.75 C93.9211147,32.9833295 93.7311166,32.0933384 93.7311166,31.08 C93.7311166,30.0666616 93.9211147,29.1766705 94.3011166,28.41 C94.6811185,27.6433295 95.2211131,27.0533354 95.9211166,26.64 C96.6211201,26.2266646 97.431112,26.02 98.3511166,26.02 C99.2711212,26.02 100.084446,26.2266646 100.791117,26.64 C101.497787,27.0533354 102.041115,27.6433295 102.421117,28.41 C102.801119,29.1766705 102.991117,30.0666616 102.991117,31.08 C102.991117,32.0933384 102.801119,32.9833295 102.421117,33.75 C102.041115,34.5166705 101.497787,35.1066646 100.791117,35.52 C100.084446,35.9333354 99.2711212,36.14 98.3511166,36.14 Z M98.3511166,34.8 C99.3111214,34.8 100.047781,34.4833365 100.561117,33.85 C101.074453,33.2166635 101.331117,32.2933394 101.331117,31.08 C101.331117,29.8933274 101.071119,28.9766699 100.551117,28.33 C100.031114,27.6833301 99.297788,27.36 98.3511166,27.36 C97.4044452,27.36 96.6711192,27.6833301 96.1511166,28.33 C95.631114,28.9766699 95.3711166,29.8933274 95.3711166,31.08 C95.3711166,32.280006 95.6277807,33.1999968 96.1411166,33.84 C96.6544525,34.4800032 97.3911118,34.8 98.3511166,34.8 Z M109.522969,26.06 C110.082972,26.0199998 110.362969,26.2466642 110.362969,26.74 C110.362969,26.9533344 110.30297,27.1233327 110.182969,27.25 C110.062969,27.3766673 109.856304,27.4533332 109.562969,27.48 L108.962969,27.54 C108.069632,27.6200004 107.406305,27.9366639 106.972969,28.49 C106.539634,29.0433361 106.322969,29.6933296 106.322969,30.44 L106.322969,35.3 C106.322969,35.566668 106.249637,35.766666 106.102969,35.9 C105.956302,36.033334 105.762971,36.1 105.522969,36.1 C105.282968,36.1 105.086304,36.0300007 104.932969,35.89 C104.779635,35.7499993 104.702969,35.5533346 104.702969,35.3 L104.702969,26.86 C104.702969,26.6066654 104.782969,26.4100007 104.942969,26.27 C105.10297,26.1299993 105.296302,26.06 105.522969,26.06 C105.736304,26.06 105.916302,26.1299993 106.062969,26.27 C106.209637,26.4100007 106.282969,26.5999988 106.282969,26.84 L106.282969,27.96 C106.562971,27.3733304 106.959634,26.9266682 107.472969,26.62 C107.986305,26.3133318 108.576299,26.1333336 109.242969,26.08 L109.522969,26.06 Z M118.394822,33.74 C118.54149,33.74 118.668155,33.7999994 118.774822,33.92 C118.881489,34.0400006 118.934822,34.1933324 118.934822,34.38 C118.934822,34.713335 118.701491,35.0199986 118.234822,35.3 C117.75482,35.5800014 117.248158,35.7899993 116.714822,35.93 C116.181486,36.0700007 115.661491,36.14 115.154822,36.14 C113.648148,36.14 112.45816,35.6933378 111.584822,34.8 C110.711484,33.9066622 110.274822,32.6733412 110.274822,31.1 C110.274822,30.099995 110.468154,29.2166705 110.854822,28.45 C111.241491,27.6833295 111.784819,27.0866688 112.484822,26.66 C113.184826,26.2333312 113.981484,26.02 114.874822,26.02 C116.141495,26.02 117.148152,26.4333292 117.894822,27.26 C118.641493,28.0866708 119.014822,29.2066596 119.014822,30.62 C119.014822,30.886668 118.961489,31.0799994 118.854822,31.2 C118.748155,31.3200006 118.574823,31.38 118.334822,31.38 L111.894822,31.38 C112.014823,33.6733448 113.101479,34.82 115.154822,34.82 C115.674825,34.82 116.121487,34.7500007 116.494822,34.61 C116.868157,34.4699993 117.268153,34.2800012 117.694822,34.04 C118.041491,33.839999 118.274822,33.74 118.394822,33.74 Z M114.894822,27.28 C114.041485,27.28 113.358158,27.546664 112.844822,28.08 C112.331486,28.613336 112.028156,29.3666618 111.934822,30.34 L117.594822,30.34 C117.568155,29.3533284 117.321491,28.5966693 116.854822,28.07 C116.388153,27.5433307 115.734826,27.28 114.894822,27.28 Z" id="App-Store" fill="#4886FF"></path>
            </g>
        </g>
    </g>
</svg>