<?xml version="1.0" encoding="UTF-8"?>
<svg width="142px" height="48px" viewBox="0 0 142 48" version="1.1" xmlns="http://www.w3.org/2000/svg" xmlns:xlink="http://www.w3.org/1999/xlink">
    <!-- Generator: Sketch 50 (54983) - http://www.bohemiancoding.com/sketch -->
    <title>Group 25</title>
    <desc>Created with Sketch.</desc>
    <defs></defs>
    <g id="Design" stroke="none" stroke-width="1" fill="none" fill-rule="evenodd">
        <g id="Home" transform="translate(-608.000000, -1206.000000)">
            <g id="Group-25" transform="translate(609.000000, 1207.000000)">
                <rect id="Rectangle-4" stroke="#4886FF" x="-0.5" y="-0.5" width="141" height="47" rx="2"></rect>
                <path d="M90.6545076,34.2844198 L89.7346,35.0993056 C89.5225767,35.2090636 89.3111233,35.3364899 89.1002399,35.4269733 C88.4613202,35.6994942 87.8115713,35.768026 87.2342068,35.768026 C86.6197951,35.768026 85.6565709,35.7310831 84.6745382,35.0634335 C83.3094956,34.1596705 82.7127526,32.6075325 82.7127526,31.254565 C82.7127526,28.453328 85.1401916,27.0794798 87.1196458,27.0794798 C87.8121413,27.0794798 88.5228754,27.2422428 89.1008099,27.5854371 C90.0617543,28.1818779 90.3102547,28.9576792 90.4481839,29.3736886 L85.9261597,31.0896604 L84.4454162,31.1978121 C84.9247485,33.4941626 86.5787584,34.8299971 88.4066045,34.8299971 C89.3196727,34.8299971 89.9973493,34.5505159 90.6191704,34.2613974 C90.6186004,34.2619328 90.7434206,34.2008967 90.6545076,34.2844198 L90.6545076,34.2844198 Z M87.9267023,29.7158121 C88.2943234,29.5905275 88.4846884,29.4818403 88.4846884,29.2307355 C88.4846884,28.5090101 87.6155068,27.6759205 86.5781884,27.6759205 C85.8093189,27.6759205 84.3673324,28.2380954 84.3673324,30.1896452 C84.3673324,30.4942905 84.4055194,30.8187457 84.4254678,31.1432009 L87.9267023,29.7158121 L87.9267023,29.7158121 Z" id="Shape" fill="#4886FF"></path>
                <path d="M81.5565193,33.4009061 C81.5565193,34.1033569 81.6898888,34.2125795 82.3219691,34.2671908 C82.6514031,34.3035983 82.9796973,34.3201958 83.3051417,34.3560679 L82.5938377,34.7538736 L79.2043144,34.7538736 C79.6488794,34.2120441 79.7252534,34.1585036 79.7252534,33.7971055 L79.7252534,33.3939458 L79.717844,22.6521228 L78.2211418,22.6521228 L79.6614184,22 L82.412022,22 C81.8158489,22.3239198 81.6380229,22.5220195 81.5610789,23.153797 L81.5565193,33.4009061 L81.5565193,33.4009061 Z" id="Shape" fill="#4886FF"></path>
                <path d="M76.4108057,27.7332088 C76.8519509,28.0742616 77.7741384,28.7975932 77.7741384,30.1709061 C77.7741384,31.5088822 76.9710716,32.1395889 76.1611653,32.736565 C75.9126649,32.9716077 75.6225577,33.2264603 75.6225577,33.6205181 C75.6225577,34.0199299 75.9132348,34.2367688 76.1224083,34.398461 L76.8171837,34.9022767 C77.6618572,35.5720679 78.4318666,36.186177 78.4318666,37.4336698 C78.4318666,39.1335795 76.6809644,40.8468743 73.3723748,40.8468743 C70.5852941,40.8468743 69.2379201,39.6004523 69.2379201,38.263547 C69.2379201,37.6124949 69.582173,36.6910636 70.7203734,36.0603569 C71.9127196,35.3755744 73.5285425,35.2840202 74.3931644,35.2304798 C74.1230057,34.9028121 73.81466,34.5596178 73.81466,33.9995845 C73.81466,33.6933331 73.9126922,33.5107601 74.0073048,33.2955275 C73.7969913,33.3142666 73.584968,33.3335412 73.3923232,33.3335412 C71.3524537,33.3335412 70.1988645,31.9040108 70.1988645,30.4948259 C70.1988645,29.6638779 70.6023927,28.7424465 71.4311075,28.0737262 C72.5277012,27.2256452 73.8351783,27.0794798 74.8742066,27.0794798 L78.8376747,27.0794798 L77.6054316,27.7332088 L76.4108057,27.7332088 L76.4108057,27.7332088 Z M75.0474729,35.7541055 C74.8901653,35.7348309 74.7955528,35.7348309 74.6051877,35.7348309 C74.4307815,35.7348309 73.3917532,35.7701676 72.5869766,36.0239494 C72.1612201,36.1701149 70.9306869,36.6021864 70.9306869,37.8860867 C70.9306869,39.1667746 72.2592524,40.0898121 74.3150806,40.0898121 C76.1611653,40.0898121 77.1420581,39.2583288 77.1420581,38.1387977 C77.1414882,37.2173663 76.5071281,36.7312189 75.0474729,35.7541055 L75.0474729,35.7541055 Z M75.6008994,32.321091 C76.0454644,31.9045462 76.0842214,31.3284509 76.0842214,31.0007832 C76.0842214,29.7013562 75.2594963,27.6775267 73.6607721,27.6775267 C73.1620613,27.6775267 72.6217438,27.9131048 72.315108,28.2761091 C71.9902335,28.6524986 71.8927712,29.1407876 71.8927712,29.6103374 C71.8927712,30.8203519 72.6434021,32.8270484 74.2962721,32.8270484 C74.7778842,32.8270484 75.2965433,32.6069971 75.6008994,32.321091 L75.6008994,32.321091 Z" id="Shape" fill="#4886FF"></path>
                <path d="M64.049387,35.7310831 C60.9921476,35.7310831 59.3563763,33.4941626 59.3563763,31.4697977 C59.3563763,29.1038447 61.4127745,27.0794798 64.3377843,27.0794798 C67.1653318,27.0794798 68.9361824,29.1589913 68.9361824,31.3423714 C68.9361824,33.4743526 67.1858502,35.7310831 64.049387,35.7310831 L64.049387,35.7310831 Z M66.4545977,34.2694285 C66.9196811,33.6911915 67.0325322,32.969466 67.0325322,32.2659444 C67.0325322,30.6747218 66.2254757,27.6400484 63.8402134,27.6400484 C63.2058534,27.6400484 62.5669336,27.8729494 62.1064099,28.2536221 C61.355209,28.885935 61.2212695,29.67994 61.2212695,30.4594892 C61.2212695,32.2445282 62.1599857,35.1887182 64.4911022,35.1887182 C65.244013,35.1887182 66.0117426,34.8465947 66.4545977,34.2694285 L66.4545977,34.2694285 Z" id="Shape" fill="#4886FF"></path>
                <path d="M54.1661333,35.7310831 C51.1083239,35.7310831 49.4748325,33.4941626 49.4748325,31.4697977 C49.4748325,29.1038447 51.5318006,27.0794798 54.4556705,27.0794798 C57.2815081,27.0794798 59.0506489,29.1589913 59.0506489,31.3423714 C59.0512189,33.4743526 57.3031664,35.7310831 54.1661333,35.7310831 L54.1661333,35.7310831 Z M56.571914,34.2694285 C57.0335777,33.6911915 57.1487086,32.969466 57.1487086,32.2659444 C57.1487086,30.6747218 56.3393723,27.6400484 53.9563898,27.6400484 C53.3197499,27.6400484 52.6876696,27.8729494 52.226006,28.2536221 C51.4736652,28.885935 51.3402957,29.67994 51.3402957,30.4594892 C51.3402957,32.2445282 52.2830015,35.1887182 54.6101284,35.1887182 C55.3613292,35.1887182 56.1279189,34.8465947 56.571914,34.2694285 L56.571914,34.2694285 Z" id="Shape" fill="#4886FF"></path>
                <path d="M48.4233124,34.4659311 L45.8448353,35.0200749 C44.8001075,35.1748068 43.8619613,35.311335 42.8685295,35.311335 C37.8945309,35.311335 36,31.8718957 36,29.1809521 C36,25.8935677 38.6850587,22.84658 43.2828869,22.84658 C44.2558003,22.84658 45.1922366,22.9809665 46.0448895,23.1988762 C47.3962532,23.5559911 48.0277635,23.9950229 48.4233124,24.2530879 L46.9254702,25.5894579 L46.2939599,25.7222382 L46.7442245,25.0476284 C46.1343725,24.4881305 45.0132707,23.455335 42.8856281,23.455335 C40.040982,23.455335 37.8945309,25.4866602 37.8945309,28.4522664 C37.8945309,31.6373885 40.3453381,34.6335128 44.2746088,34.6335128 C45.429338,34.6335128 46.0238012,34.4156031 46.5635487,34.2121493 L46.5635487,31.4815857 L43.8414429,31.6191847 L45.2845694,30.8910344 L49.1049787,30.8910344 L48.6381855,31.3134687 C48.5116554,31.4141248 48.4951267,31.4483907 48.4597895,31.5833126 C48.440981,31.7375092 48.4238823,32.2279398 48.4238823,32.4003401 L48.4238823,34.4659311 L48.4233124,34.4659311 Z" id="Shape" fill="#4886FF"></path>
                <path d="M96.2621763,33.5529518 L96.2621763,38.15529 L95.2892629,38.15529 L95.2892629,26.44492 L96.2621763,26.44492 L96.2621763,27.7780776 C96.8953965,26.9166115 98.0535454,26.2328998 99.3992095,26.2328998 C101.81126,26.2328998 103.436772,27.9520841 103.436772,30.6735458 C103.436772,33.3768037 101.81126,35.1318601 99.3992095,35.1318601 C98.1293494,35.1323955 96.9917189,34.5172156 96.2621763,33.5529518 L96.2621763,33.5529518 Z M102.391474,30.6740812 C102.391474,28.6229461 101.253274,27.0584937 99.2350624,27.0584937 C97.981731,27.0584937 96.7831153,27.9842083 96.2621763,28.7905277 L96.2621763,32.5388955 C96.7831153,33.3473565 97.981731,34.3062661 99.2350624,34.3062661 C101.253274,34.3062661 102.391474,32.7284287 102.391474,30.6740812 L102.391474,30.6740812 Z" id="Shape" fill="#4886FF"></path>
                <polygon id="Shape" fill="#4886FF" points="105.170807 35.4029945 105.170807 23.6931599 106.14315 23.6931599 106.14315 35.4029945 105.170807 35.4029945"></polygon>
                <path d="M116.904208,38.0322522 C117.111671,38.1189877 117.466753,38.1730636 117.692456,38.1730636 C118.287489,38.1730636 118.701846,37.9444458 119.074027,37.1365202 L119.783621,35.6266792 L115.950673,27.0794798 L117.035867,27.0794798 L120.323369,34.4862673 L123.578952,27.0794798 L124.679536,27.0794798 L120.005334,37.4197493 C119.520302,38.4852045 118.757132,38.9975867 117.708984,38.9975867 C117.394369,38.9975867 116.980012,38.9445816 116.736641,38.874979 L116.904208,38.0322522 L116.904208,38.0322522 Z" id="Shape" fill="#4886FF"></path>
                <path d="M113.534474,34.8984237 C113.469499,34.6044865 113.420483,34.3458861 113.384576,34.1290472 C113.354368,33.9132791 113.33784,33.6926924 113.33784,33.4683579 C113.003846,33.9282705 112.531353,34.3110848 111.927771,34.613053 C111.323618,34.916092 110.750243,35.0654699 109.962565,35.0654699 C109.01473,35.0654699 108.279488,34.8464894 107.753989,34.4021036 C107.23077,33.9582531 106.967451,33.3569937 106.967451,32.5961838 C106.967451,31.8364446 107.348751,31.2196585 108.109071,30.747967 C108.869391,30.2741339 109.852564,30.0390913 111.068278,30.0390913 L113.33727,30.0390913 L113.33727,28.985415 C113.33727,28.3788015 113.116697,27.9022914 112.677832,27.5558846 C112.236686,27.2100132 111.617715,27.0344005 110.814648,27.0344005 C110.081116,27.0344005 109.486083,27.1944865 109.032969,27.506092 C108.583844,27.8241224 108.358142,28.2181802 108.358142,28.6930841 L107.36243,28.6930841 L107.341912,28.6475747 C107.305434,28.0077661 107.61777,27.4455913 108.280628,26.9610501 C108.940066,26.4765089 109.805258,26.2328998 110.869364,26.2328998 C111.929481,26.2328998 112.787833,26.4727611 113.435302,26.9514128 C114.081631,27.4252459 114.405936,28.1100284 114.405936,29.005225 L114.405936,33.1872705 C114.405936,33.4876325 114.420755,33.7778218 114.461221,34.0605154 C114.502258,34.3437445 114.567803,34.6264381 114.655006,34.8994945 L113.534474,34.8994945 L113.534474,34.8984237 Z M110.082256,34.2323803 C110.908691,34.2323803 111.502584,34.0589092 112.110156,33.7157148 C112.713169,33.3741267 113.122967,32.9292054 113.33841,32.3905884 L113.33841,30.7629583 L111.058589,30.7629583 C110.187698,30.7629583 109.466704,30.9439251 108.899599,31.3096065 C108.331354,31.6736816 108.042956,32.1143196 108.042956,32.6267018 C108.042956,33.1096368 108.225342,33.4967343 108.588403,33.7896007 C108.951465,34.0856794 109.448466,34.2323803 110.082256,34.2323803 L110.082256,34.2323803 Z" id="Shape" fill="#4886FF"></path>
                <path d="M9.64474496,33.9650748 C9.2542029,33.8598787 9,33.4721398 9,32.8721315 L9,13.0667399 C9,12.5110408 9.21523732,12.1362622 9.55643007,12 L9.55643007,12 L19.2892072,23.0372633 L9.64474496,33.9650748 L9.64474496,33.9650748 Z M10.9845317,33.5446698 L22.6997237,26.9048922 L19.8463222,23.6690486 L10.9845317,33.5446698 L10.9845317,33.5446698 Z M22.7803956,19.0815167 L11.2284674,12.5327498 L19.8632139,22.3868759 L22.7803956,19.0815167 L22.7803956,19.0815167 Z M23.5641845,19.5258452 L28.0895939,22.0912915 C28.946426,22.577028 28.9542618,23.36003 28.0895939,23.8500947 L23.4496961,26.479833 L20.4233025,23.026059 L23.5641845,19.5258452 L23.5641845,19.5258452 Z" id="google-play" fill="#4886FF"></path>
                <path d="M43.332,12.596 C43.4520006,12.596 43.5499996,12.6319996 43.626,12.704 C43.7020004,12.7760004 43.74,12.8759994 43.74,13.004 L43.74,15.992 C43.74,16.184001 43.7100003,16.3279995 43.65,16.424 C43.5899997,16.5200005 43.4800008,16.5959997 43.32,16.652 C42.9999984,16.7880007 42.6120023,16.8959996 42.156,16.976 C41.6999977,17.0560004 41.2440023,17.096 40.788,17.096 C39.9479958,17.096 39.224003,16.9240017 38.616,16.58 C38.007997,16.2359983 37.5420016,15.7400032 37.218,15.092 C36.8939984,14.4439968 36.732,13.6680045 36.732,12.764 C36.732,11.8759956 36.8919984,11.1080032 37.212,10.46 C37.5320016,9.81199676 37.991997,9.31400174 38.592,8.966 C39.192003,8.61799826 39.895996,8.444 40.704,8.444 C41.2640028,8.444 41.7839976,8.52999914 42.264,8.702 C42.7440024,8.87400086 43.1479984,9.1199984 43.476,9.44 C43.6120007,9.57600068 43.68,9.71599928 43.68,9.86 C43.68,9.97200056 43.6480003,10.0699996 43.584,10.154 C43.5199997,10.2380004 43.4400005,10.28 43.344,10.28 C43.2479995,10.28 43.1360006,10.2320005 43.008,10.136 C42.5919979,9.8159984 42.2160017,9.59400062 41.88,9.47 C41.5439983,9.34599938 41.1560022,9.284 40.716,9.284 C39.7639952,9.284 39.0340025,9.583997 38.526,10.184 C38.0179975,10.784003 37.764,11.6439944 37.764,12.764 C37.764,13.9080057 38.0219974,14.777997 38.538,15.374 C39.0540026,15.970003 39.811995,16.268 40.812,16.268 C41.5560037,16.268 42.231997,16.1560011 42.84,15.932 L42.84,13.364 L41.088,13.364 C40.9519993,13.364 40.8440004,13.3280004 40.764,13.256 C40.6839996,13.1839996 40.644,13.0920006 40.644,12.98 C40.644,12.8599994 40.6839996,12.7660003 40.764,12.698 C40.8440004,12.6299997 40.9519993,12.596 41.088,12.596 L43.332,12.596 Z M50.352,15.644 C50.4400004,15.644 50.5159997,15.6799996 50.58,15.752 C50.6440003,15.8240004 50.676,15.9159994 50.676,16.028 C50.676,16.228001 50.5360014,16.4119992 50.256,16.58 C49.9679986,16.7480008 49.6640016,16.8739996 49.344,16.958 C49.0239984,17.0420004 48.7120015,17.084 48.408,17.084 C47.5039955,17.084 46.7900026,16.8160027 46.266,16.28 C45.7419974,15.7439973 45.48,15.0040047 45.48,14.06 C45.48,13.459997 45.5959988,12.9300023 45.828,12.47 C46.0600012,12.0099977 46.3859979,11.6520013 46.806,11.396 C47.2260021,11.1399987 47.7039973,11.012 48.24,11.012 C49.0000038,11.012 49.6039978,11.2599975 50.052,11.756 C50.5000022,12.2520025 50.724,12.9239958 50.724,13.772 C50.724,13.9320008 50.6920003,14.0479996 50.628,14.12 C50.5639997,14.1920004 50.4600007,14.228 50.316,14.228 L46.452,14.228 C46.5240004,15.6040069 47.1759938,16.292 48.408,16.292 C48.7200016,16.292 48.9879989,16.2500004 49.212,16.166 C49.4360011,16.0819996 49.6759987,15.9680007 49.932,15.824 C50.140001,15.7039994 50.2799996,15.644 50.352,15.644 Z M48.252,11.768 C47.7399974,11.768 47.3300015,11.9279984 47.022,12.248 C46.7139985,12.5680016 46.5320003,13.0199971 46.476,13.604 L49.872,13.604 C49.8559999,13.011997 49.7080014,12.5580016 49.428,12.242 C49.1479986,11.9259984 48.7560025,11.768 48.252,11.768 Z M55.056,16.292 C55.3360014,16.3160001 55.476,16.4439988 55.476,16.676 C55.476,16.8120007 55.4260005,16.9139997 55.326,16.982 C55.2259995,17.0500003 55.076001,17.0760001 54.876,17.06 L54.552,17.036 C53.9119968,16.9879998 53.4400015,16.7960017 53.136,16.46 C52.8319985,16.1239983 52.68,15.6160034 52.68,14.936 L52.68,11.924 L51.876,11.924 C51.7399993,11.924 51.6340004,11.8900003 51.558,11.822 C51.4819996,11.7539997 51.444,11.6640006 51.444,11.552 C51.444,11.4319994 51.4819996,11.3360004 51.558,11.264 C51.6340004,11.1919996 51.7399993,11.156 51.876,11.156 L52.68,11.156 L52.68,9.8 C52.68,9.64799924 52.7239996,9.53000042 52.812,9.446 C52.9000004,9.36199958 53.0199992,9.32 53.172,9.32 C53.3160007,9.32 53.4319996,9.36199958 53.52,9.446 C53.6080004,9.53000042 53.652,9.64799924 53.652,9.8 L53.652,11.156 L54.984,11.156 C55.1120006,11.156 55.2139996,11.1919996 55.29,11.264 C55.3660004,11.3360004 55.404,11.4319994 55.404,11.552 C55.404,11.6640006 55.3660004,11.7539997 55.29,11.822 C55.2139996,11.8900003 55.1120006,11.924 54.984,11.924 L53.652,11.924 L53.652,14.984 C53.652,15.4240022 53.7419991,15.741999 53.922,15.938 C54.1020009,16.134001 54.3719982,16.2439999 54.732,16.268 L55.056,16.292 Z M60.648,17.06 C60.4959992,17.06 60.3760004,17.0140005 60.288,16.922 C60.1999996,16.8299995 60.156,16.7080008 60.156,16.556 L60.156,8.984 C60.156,8.83199924 60.1999996,8.71000046 60.288,8.618 C60.3760004,8.52599954 60.4959992,8.48 60.648,8.48 C60.8000008,8.48 60.9199996,8.52599954 61.008,8.618 C61.0960004,8.71000046 61.14,8.83199924 61.14,8.984 L61.14,16.556 C61.14,16.7080008 61.0960004,16.8299995 61.008,16.922 C60.9199996,17.0140005 60.8000008,17.06 60.648,17.06 Z M66.024,16.292 C66.3040014,16.3160001 66.444,16.4439988 66.444,16.676 C66.444,16.8120007 66.3940005,16.9139997 66.294,16.982 C66.1939995,17.0500003 66.044001,17.0760001 65.844,17.06 L65.52,17.036 C64.8799968,16.9879998 64.4080015,16.7960017 64.104,16.46 C63.7999985,16.1239983 63.648,15.6160034 63.648,14.936 L63.648,11.924 L62.844,11.924 C62.7079993,11.924 62.6020004,11.8900003 62.526,11.822 C62.4499996,11.7539997 62.412,11.6640006 62.412,11.552 C62.412,11.4319994 62.4499996,11.3360004 62.526,11.264 C62.6020004,11.1919996 62.7079993,11.156 62.844,11.156 L63.648,11.156 L63.648,9.8 C63.648,9.64799924 63.6919996,9.53000042 63.78,9.446 C63.8680004,9.36199958 63.9879992,9.32 64.14,9.32 C64.2840007,9.32 64.3999996,9.36199958 64.488,9.446 C64.5760004,9.53000042 64.62,9.64799924 64.62,9.8 L64.62,11.156 L65.952,11.156 C66.0800006,11.156 66.1819996,11.1919996 66.258,11.264 C66.3340004,11.3360004 66.372,11.4319994 66.372,11.552 C66.372,11.6640006 66.3340004,11.7539997 66.258,11.822 C66.1819996,11.8900003 66.0800006,11.924 65.952,11.924 L64.62,11.924 L64.62,14.984 C64.62,15.4240022 64.7099991,15.741999 64.89,15.938 C65.0700009,16.134001 65.3399982,16.2439999 65.7,16.268 L66.024,16.292 Z M74.664,17.096 C73.8799961,17.096 73.1980029,16.9200018 72.618,16.568 C72.0379971,16.2159982 71.5920016,15.7160032 71.28,15.068 C70.9679984,14.4199968 70.812,13.6560044 70.812,12.776 C70.812,11.8879956 70.9659985,11.1180033 71.274,10.466 C71.5820015,9.81399674 72.0259971,9.31400174 72.606,8.966 C73.1860029,8.61799826 73.871996,8.444 74.664,8.444 C75.456004,8.444 76.1419971,8.61799826 76.722,8.966 C77.3020029,9.31400174 77.7459985,9.81399674 78.054,10.466 C78.3620015,11.1180033 78.516,11.8839956 78.516,12.764 C78.516,13.6440044 78.3600016,14.4099967 78.048,15.062 C77.7359984,15.7140033 77.2900029,16.2159982 76.71,16.568 C76.1299971,16.9200018 75.4480039,17.096 74.664,17.096 Z M74.664,16.256 C75.5600045,16.256 76.2579975,15.954003 76.758,15.35 C77.2580025,14.745997 77.508,13.8840056 77.508,12.764 C77.508,11.6439944 77.2600025,10.784003 76.764,10.184 C76.2679975,9.583997 75.5680045,9.284 74.664,9.284 C73.7679955,9.284 73.0700025,9.58599698 72.57,10.19 C72.0699975,10.794003 71.82,11.6519944 71.82,12.764 C71.82,13.8760056 72.0699975,14.735997 72.57,15.344 C73.0700025,15.952003 73.7679955,16.256 74.664,16.256 Z M83.328,11.012 C84.728007,11.012 85.428,11.7839923 85.428,13.328 L85.428,16.58 C85.428,16.7320008 85.3860004,16.8499996 85.302,16.934 C85.2179996,17.0180004 85.1000008,17.06 84.948,17.06 C84.7959992,17.06 84.6760004,17.0180004 84.588,16.934 C84.4999996,16.8499996 84.456,16.7320008 84.456,16.58 L84.456,13.388 C84.456,12.8439973 84.3500011,12.4480012 84.138,12.2 C83.9259989,11.9519988 83.5880023,11.828 83.124,11.828 C82.5879973,11.828 82.1600016,11.9919984 81.84,12.32 C81.5199984,12.6480016 81.36,13.0919972 81.36,13.652 L81.36,16.58 C81.36,16.7320008 81.3180004,16.8499996 81.234,16.934 C81.1499996,17.0180004 81.0320008,17.06 80.88,17.06 C80.7279992,17.06 80.6080004,17.0180004 80.52,16.934 C80.4319996,16.8499996 80.388,16.7320008 80.388,16.58 L80.388,11.516 C80.388,11.3719993 80.4319996,11.2560004 80.52,11.168 C80.6080004,11.0799996 80.7279992,11.036 80.88,11.036 C81.0240007,11.036 81.1379996,11.0799996 81.222,11.168 C81.3060004,11.2560004 81.348,11.3679993 81.348,11.504 L81.348,12.116 C81.540001,11.7559982 81.8079983,11.4820009 82.152,11.294 C82.4960017,11.1059991 82.8879978,11.012 83.328,11.012 Z" id="Get-It-On" fill="#4886FF"></path>
            </g>
        </g>
    </g>
</svg>