<?xml version="1.0" encoding="UTF-8"?>
<svg width="105px" height="30px" viewBox="0 0 105 30" version="1.1" xmlns="http://www.w3.org/2000/svg" xmlns:xlink="http://www.w3.org/1999/xlink">
    <title>green-logo</title>
    <defs>
        <linearGradient x1="2.78571429%" y1="4.76317081%" x2="87.327567%" y2="69.388089%" id="linearGradient-1">
            <stop stop-color="#2DC5C6" offset="0%"></stop>
            <stop stop-color="#1F7CC0" offset="100%"></stop>
        </linearGradient>
    </defs>
    <g id="Page-1" stroke="none" stroke-width="1" fill="none" fill-rule="evenodd">
        <g id="green-logo" fill-rule="nonzero">
            <g id="Group-26">
                <rect id="Rectangle-17" fill="url(#linearGradient-1)" x="0" y="0" width="30" height="30" rx="5"></rect>
                <path d="M17.0198937,28.0145888 C16.8342164,28.0145888 16.6671093,27.9650755 16.5185674,27.8660476 C15.1074198,26.9252826 14.0274129,25.7586276 13.2785144,24.3660476 C12.5296159,22.9734677 12.1551722,21.4602203 12.1551722,19.8262598 C12.1551722,18.1922994 12.5296159,16.679052 13.2785144,15.286472 C14.0274129,13.8938921 15.1074198,12.7272371 16.5185674,11.786472 C16.6671093,11.6874441 16.8342164,11.6379309 17.0198937,11.6379309 C17.2922204,11.6379309 17.5150299,11.7431465 17.6883287,11.9535808 C17.8616275,12.1640151 17.9482757,12.3806354 17.9482757,12.6034482 C17.9482757,12.8881534 17.8183035,13.1357194 17.5583552,13.3461537 C16.5061838,14.163134 15.717067,15.1286415 15.1909812,16.2427055 C14.6648955,17.3567694 14.4018566,18.5512756 14.4018566,19.8262598 C14.4018566,21.1260011 14.6618009,22.3421693 15.1816974,23.474801 C15.7015939,24.6074326 16.4938053,25.5512782 17.5583552,26.3063659 C17.8183035,26.4920433 17.9482757,26.7396093 17.9482757,27.0490715 C17.9482757,27.2842628 17.8554384,27.5039777 17.6697611,27.7082227 C17.4840838,27.9124678 17.2674635,28.0145888 17.0198937,28.0145888 Z" id="(" fill="#FFFFFF" transform="translate(15.051724, 19.826260) rotate(-90.000000) translate(-15.051724, -19.826260) "></path>
            </g>
            <path d="M52.5765517,19.2331034 C52.6317244,19.3765524 52.6593103,19.5089649 52.6593103,19.6303448 C52.6593103,19.9172428 52.5655182,20.1517232 52.377931,20.3337931 C52.1903439,20.515863 51.9751736,20.6068966 51.7324138,20.6068966 C51.5337921,20.6068966 51.3544836,20.5462075 51.1944828,20.4248276 C51.034482,20.3034477 50.9103453,20.1379321 50.822069,19.9282759 L49.9613793,17.9255172 L45.0289655,17.9255172 L44.1682759,19.9448276 C44.0910341,20.1544838 43.9724146,20.3172408 43.8124138,20.4331034 C43.652413,20.5489661 43.4786216,20.6068966 43.2910345,20.6068966 C43.0041365,20.6068966 42.7862076,20.5296559 42.6372414,20.3751724 C42.4882751,20.2206889 42.4137931,20.0110358 42.4137931,19.7462069 C42.4137931,19.6468961 42.4303447,19.5420695 42.4634483,19.4317241 L46.5848276,9.5337931 C46.6731039,9.31310234 46.8055164,9.14206957 46.982069,9.02068966 C47.1586216,8.89930974 47.3572403,8.84965506 47.577931,8.87172414 C47.7765527,8.87172414 47.9613785,8.92965459 48.1324138,9.04551724 C48.3034491,9.16137989 48.4275858,9.32413688 48.5048276,9.5337931 L52.5765517,19.2331034 Z M45.84,16.022069 L49.1503448,16.022069 L47.4786207,12.1489655 L45.84,16.022069 Z M59.6234483,11.5034483 C60.3848314,11.5034483 61.0744797,11.6993084 61.6924138,12.0910345 C62.3103479,12.4827606 62.7986189,13.0262034 63.1572414,13.7213793 C63.5158639,14.4165552 63.6951724,15.2055128 63.6951724,16.0882759 C63.6951724,16.9710389 63.5186225,17.7627551 63.1655173,18.4634483 C62.8124121,19.1641414 62.3296583,19.7103429 61.7172414,20.102069 C61.1048245,20.4937951 60.4289692,20.6896552 59.6896552,20.6896552 C59.1599974,20.6896552 58.660692,20.58207 58.1917242,20.3668966 C57.7227563,20.1517231 57.3337947,19.8896567 57.0248276,19.5806897 L57.0248276,22.8248276 C57.0248276,23.1117256 56.9310354,23.3517232 56.7434483,23.5448276 C56.5558612,23.737932 56.3186221,23.8344828 56.0317242,23.8344828 C55.7448262,23.8344828 55.5075872,23.7406906 55.32,23.5531034 C55.1324129,23.3655163 55.0386207,23.1227601 55.0386207,22.8248276 L55.0386207,12.6786207 C55.0386207,12.3917227 55.1324129,12.1517251 55.32,11.9586207 C55.5075872,11.7655163 55.7448262,11.6689655 56.0317242,11.6689655 C56.3186221,11.6689655 56.5558612,11.7655163 56.7434483,11.9586207 C56.9310354,12.1517251 57.0248276,12.3917227 57.0248276,12.6786207 L57.0248276,12.7448276 C57.2896565,12.4137914 57.659308,12.1241392 58.1337931,11.8758621 C58.6082783,11.627585 59.104825,11.5034483 59.6234483,11.5034483 Z M59.3751724,18.8689655 C60.0813829,18.8689655 60.6606874,18.6041406 61.1131035,18.0744828 C61.5655195,17.5448249 61.7917242,16.8827626 61.7917242,16.0882759 C61.7917242,15.2937891 61.5682781,14.6344854 61.1213793,14.1103448 C60.6744805,13.5862043 60.0924174,13.3241379 59.3751724,13.3241379 C58.6579275,13.3241379 58.0731057,13.5862043 57.6206897,14.1103448 C57.1682736,14.6344854 56.942069,15.2937891 56.942069,16.0882759 C56.942069,16.8827626 57.1682736,17.5448249 57.6206897,18.0744828 C58.0731057,18.6041406 58.6579275,18.8689655 59.3751724,18.8689655 Z M70.1917242,10.0303448 C69.8165499,10.0303448 69.551725,10.13793 69.3972415,10.3531034 C69.2427579,10.5682769 69.1655173,10.8027574 69.1655173,11.0565517 L69.1655173,11.8344828 L70.6717242,11.8344828 C70.9365531,11.8344828 71.1572406,11.9199991 71.3337932,12.0910345 C71.5103458,12.2620698 71.5986208,12.4799987 71.5986208,12.7448276 C71.5986208,13.0096565 71.5103458,13.2275854 71.3337932,13.3986207 C71.1572406,13.569656 70.9365531,13.6551724 70.6717242,13.6551724 L69.1655173,13.6551724 L69.1655173,19.5144828 C69.1655173,19.8013807 69.0717251,20.0413783 68.884138,20.2344828 C68.6965509,20.4275872 68.4593119,20.5241379 68.1724139,20.5241379 C67.8855159,20.5241379 67.6482769,20.4275872 67.4606897,20.2344828 C67.2731026,20.0413783 67.1793104,19.8013807 67.1793104,19.5144828 L67.1793104,13.6551724 L66.2855173,13.6551724 C66.0206884,13.6551724 65.800001,13.569656 65.6234483,13.3986207 C65.4468957,13.2275854 65.3586208,13.0096565 65.3586208,12.7448276 C65.3586208,12.4799987 65.4468957,12.2620698 65.6234483,12.0910345 C65.800001,11.9199991 66.0206884,11.8344828 66.2855173,11.8344828 L67.1793104,11.8344828 L67.1793104,11.0731034 C67.1793104,10.2455131 67.4634455,9.57241639 68.0317242,9.0537931 C68.6000029,8.53516982 69.4193051,8.27586207 70.4896552,8.27586207 C70.8979331,8.27586207 71.2537917,8.35861986 71.5572415,8.52413793 C71.8606912,8.689656 72.0124139,8.94344657 72.0124139,9.28551724 C72.0124139,9.55034615 71.9351733,9.76551641 71.7806897,9.93103448 C71.6262062,10.0965526 71.4386219,10.1793103 71.2179311,10.1793103 C71.1627584,10.1793103 71.104828,10.1737932 71.044138,10.1627586 C70.983448,10.1517241 70.9200004,10.1406897 70.8537932,10.1296552 C70.5889643,10.0634479 70.3682768,10.0303448 70.1917242,10.0303448 Z M82.4855173,16.1048276 C82.4855173,16.9875906 82.2868986,17.7793068 81.8896553,18.48 C81.4924119,19.1806932 80.9489691,19.724136 80.2593104,20.1103448 C79.5696518,20.4965537 78.8110387,20.6896552 77.9834484,20.6896552 C77.1448235,20.6896552 76.3834518,20.4965537 75.6993104,20.1103448 C75.0151691,19.724136 74.4744848,19.1806932 74.0772415,18.48 C73.6799981,17.7793068 73.4813794,16.9875906 73.4813794,16.1048276 C73.4813794,15.2220646 73.6799981,14.4303483 74.0772415,13.7296552 C74.4744848,13.028962 75.0151691,12.4827606 75.6993104,12.0910345 C76.3834518,11.6993084 77.1448235,11.5034483 77.9834484,11.5034483 C78.8110387,11.5034483 79.5696518,11.6993084 80.2593104,12.0910345 C80.9489691,12.4827606 81.4924119,13.028962 81.8896553,13.7296552 C82.2868986,14.4303483 82.4855173,15.2220646 82.4855173,16.1048276 Z M80.4993104,16.1048276 C80.4993104,15.5641352 80.3862081,15.0813814 80.1600001,14.6565517 C79.9337921,14.231722 79.6303468,13.9034494 79.2496553,13.6717241 C78.8689637,13.4399988 78.446899,13.3241379 77.9834484,13.3241379 C77.5199978,13.3241379 77.097933,13.4399988 76.7172415,13.6717241 C76.3365499,13.9034494 76.0331047,14.231722 75.8068967,14.6565517 C75.5806886,15.0813814 75.4675863,15.5641352 75.4675863,16.1048276 C75.4675863,16.6455199 75.5806886,17.1255151 75.8068967,17.5448276 C76.0331047,17.96414 76.3365499,18.289654 76.7172415,18.5213793 C77.097933,18.7531046 77.5199978,18.8689655 77.9834484,18.8689655 C78.446899,18.8689655 78.8689637,18.7531046 79.2496553,18.5213793 C79.6303468,18.289654 79.9337921,17.96414 80.1600001,17.5448276 C80.3862081,17.1255151 80.4993104,16.6455199 80.4993104,16.1048276 Z M87.430345,19.5144828 C87.430345,19.8013807 87.3337942,20.0413783 87.1406898,20.2344828 C86.9475854,20.4275872 86.7075878,20.5241379 86.4206898,20.5241379 C86.1448263,20.5241379 85.9131045,20.4275872 85.7255174,20.2344828 C85.5379302,20.0413783 85.4441381,19.8013807 85.4441381,19.5144828 L85.4441381,9.28551724 C85.4441381,8.99861926 85.5406888,8.75862166 85.7337932,8.56551724 C85.9268976,8.37241283 86.1668952,8.27586207 86.4537932,8.27586207 C86.7296567,8.27586207 86.9613785,8.37241283 87.1489656,8.56551724 C87.3365528,8.75862166 87.430345,8.99861926 87.430345,9.28551724 L87.430345,19.5144828 Z M92.755862,19.5144828 C92.755862,19.8013807 92.66207,20.0413783 92.474483,20.2344828 C92.286896,20.4275872 92.049657,20.5241379 91.762759,20.5241379 C91.475861,20.5241379 91.238622,20.4275872 91.051035,20.2344828 C90.863447,20.0413783 90.769655,19.8013807 90.769655,19.5144828 L90.769655,12.6786207 C90.769655,12.3917227 90.863447,12.1517251 91.051035,11.9586207 C91.238622,11.7655163 91.475861,11.6689655 91.762759,11.6689655 C92.049657,11.6689655 92.286896,11.7655163 92.474483,11.9586207 C92.66207,12.1517251 92.755862,12.3917227 92.755862,12.6786207 L92.755862,19.5144828 Z M91.746207,10.5931034 C91.371033,10.5931034 91.106208,10.5324144 90.951724,10.4110345 C90.797241,10.2896546 90.72,10.0744843 90.72,9.76551724 L90.72,9.45103448 C90.72,9.14206742 90.802758,8.92689716 90.968276,8.80551724 C91.133794,8.68413732 91.398619,8.62344828 91.762759,8.62344828 C92.148968,8.62344828 92.41931,8.68413732 92.573793,8.80551724 C92.728277,8.92689716 92.805517,9.14206742 92.805517,9.45103448 L92.805517,9.76551724 C92.805517,10.0855188 92.725518,10.3034477 92.565517,10.4193103 C92.405517,10.535173 92.132416,10.5931034 91.746207,10.5931034 Z M104.437242,16.1048276 C104.437242,16.9875906 104.238623,17.7793068 103.841379,18.48 C103.444136,19.1806932 102.900693,19.724136 102.211035,20.1103448 C101.521376,20.4965537 100.762763,20.6896552 99.935173,20.6896552 C99.096548,20.6896552 98.335176,20.4965537 97.651035,20.1103448 C96.966893,19.724136 96.426209,19.1806932 96.028966,18.48 C95.631722,17.7793068 95.433104,16.9875906 95.433104,16.1048276 C95.433104,15.2220646 95.631722,14.4303483 96.028966,13.7296552 C96.426209,13.028962 96.966893,12.4827606 97.651035,12.0910345 C98.335176,11.6993084 99.096548,11.5034483 99.935173,11.5034483 C100.762763,11.5034483 101.521376,11.6993084 102.211035,12.0910345 C102.900693,12.4827606 103.444136,13.028962 103.841379,13.7296552 C104.238623,14.4303483 104.437242,15.2220646 104.437242,16.1048276 Z M102.451035,16.1048276 C102.451035,15.5641352 102.337932,15.0813814 102.111724,14.6565517 C101.885516,14.231722 101.582071,13.9034494 101.201379,13.6717241 C100.820688,13.4399988 100.398623,13.3241379 99.935173,13.3241379 C99.471722,13.3241379 99.049657,13.4399988 98.668966,13.6717241 C98.288274,13.9034494 97.984829,14.231722 97.758621,14.6565517 C97.532413,15.0813814 97.419311,15.5641352 97.419311,16.1048276 C97.419311,16.6455199 97.532413,17.1255151 97.758621,17.5448276 C97.984829,17.96414 98.288274,18.289654 98.668966,18.5213793 C99.049657,18.7531046 99.471722,18.8689655 99.935173,18.8689655 C100.398623,18.8689655 100.820688,18.7531046 101.201379,18.5213793 C101.582071,18.289654 101.885516,17.96414 102.111724,17.5448276 C102.337932,17.1255151 102.451035,16.6455199 102.451035,16.1048276 Z" id="Appfolio" fill="#1E3056"></path>
        </g>
    </g>
</svg>