<?xml version="1.0" encoding="UTF-8"?>
<svg width="105px" height="30px" viewBox="0 0 105 30" version="1.1" xmlns="http://www.w3.org/2000/svg" xmlns:xlink="http://www.w3.org/1999/xlink">
    <title>blue-logo</title>
    <defs>
        <linearGradient x1="7.56000475%" y1="6.42510776%" x2="95.7491683%" y2="93.4502963%" id="linearGradient-1">
            <stop stop-color="#3680D6" offset="0%"></stop>
            <stop stop-color="#4B0FBF" offset="100%"></stop>
        </linearGradient>
    </defs>
    <g id="Page-1" stroke="none" stroke-width="1" fill="none" fill-rule="evenodd">
        <g id="blue-logo" fill-rule="nonzero">
            <g id="Group-26">
                <rect id="Rectangle-17" fill="url(#linearGradient-1)" x="0" y="0" width="30.1102941" height="30" rx="5"></rect>
                <path d="M17.0824666,28.0145886 C16.8961067,28.0145886 16.7283852,27.9650753 16.5792973,27.8660474 C15.1629616,26.9252824 14.0789841,25.7586274 13.3273323,24.3660474 C12.5756804,22.9734675 12.1998601,21.4602201 12.1998601,19.8262596 C12.1998601,18.1922992 12.5756804,16.6790518 13.3273323,15.2864718 C14.0789841,13.8938919 15.1629616,12.7272369 16.5792973,11.7864718 C16.7283852,11.6874439 16.8961067,11.6379307 17.0824666,11.6379307 C17.3557946,11.6379307 17.5794232,11.7431463 17.7533591,11.9535806 C17.9272951,12.1640149 18.0142618,12.3806352 18.0142618,12.603448 C18.0142618,12.8881532 17.8838118,13.1357192 17.6229078,13.3461535 C16.5668681,14.1631338 15.7748501,15.1286413 15.2468302,16.2427053 C14.7188103,17.3567692 14.4548044,18.5512754 14.4548044,19.8262596 C14.4548044,21.1260009 14.7157044,22.3421691 15.2375123,23.4748008 C15.7593202,24.6074324 16.5544441,25.551278 17.6229078,26.3063657 C17.8838118,26.4920431 18.0142618,26.7396091 18.0142618,27.0490713 C18.0142618,27.2842626 17.9210832,27.5039775 17.7347232,27.7082225 C17.5483633,27.9124676 17.3309466,28.0145886 17.0824666,28.0145886 Z" id="(" fill="#FFFFFF" transform="translate(15.107061, 19.826260) rotate(-90.000000) translate(-15.107061, -19.826260) "></path>
            </g>
            <path d="M52.7698479,19.2331034 C52.8252234,19.3765524 52.8529108,19.5089649 52.8529108,19.6303448 C52.8529108,19.9172428 52.7587738,20.1517232 52.570497,20.3337931 C52.3822202,20.515863 52.1662588,20.6068966 51.9226065,20.6068966 C51.7232546,20.6068966 51.5432868,20.5462075 51.3826978,20.4248276 C51.2221087,20.3034477 51.0975157,20.1379321 51.0089148,19.9282759 L50.1450609,17.9255172 L45.1945132,17.9255172 L44.3306592,19.9448276 C44.2531335,20.1544838 44.1340779,20.3172408 43.9734888,20.4331034 C43.8128998,20.5489661 43.6384695,20.6068966 43.4501927,20.6068966 C43.1622399,20.6068966 42.9435099,20.5296559 42.7939959,20.3751724 C42.644482,20.2206889 42.5697262,20.0110358 42.5697262,19.7462069 C42.5697262,19.6468961 42.5863386,19.5420695 42.6195639,19.4317241 L46.7560953,9.5337931 C46.8446962,9.31310234 46.9775955,9.14206957 47.1547972,9.02068966 C47.3319989,8.89930974 47.5313478,8.84965506 47.7528499,8.87172414 C47.9522018,8.87172414 48.1377071,8.92965459 48.3093712,9.04551724 C48.4810353,9.16137989 48.6056284,9.32413688 48.6831542,9.5337931 L52.7698479,19.2331034 Z M46.0085294,16.022069 L49.3310446,16.022069 L47.6531744,12.1489655 L46.0085294,16.022069 Z M59.8426522,11.5034483 C60.6068345,11.5034483 61.2990182,11.6993084 61.9192242,12.0910345 C62.5394301,12.4827606 63.0294962,13.0262034 63.3894371,13.7213793 C63.7493781,14.4165552 63.9293459,15.2055128 63.9293459,16.0882759 C63.9293459,16.9710389 63.7521468,17.7627551 63.3977434,18.4634483 C63.04334,19.1641414 62.5588114,19.7103429 61.944143,20.102069 C61.3294746,20.4937951 60.6511346,20.6896552 59.9091025,20.6896552 C59.3774974,20.6896552 58.8763563,20.58207 58.4056643,20.3668966 C57.9349723,20.1517231 57.5445807,19.8896567 57.2344777,19.5806897 L57.2344777,22.8248276 C57.2344777,23.1117256 57.1403407,23.3517232 56.9520639,23.5448276 C56.7637871,23.737932 56.5256759,23.8344828 56.2377231,23.8344828 C55.9497704,23.8344828 55.7116592,23.7406906 55.5233824,23.5531034 C55.3351056,23.3655163 55.2409686,23.1227601 55.2409686,22.8248276 L55.2409686,12.6786207 C55.2409686,12.3917227 55.3351056,12.1517251 55.5233824,11.9586207 C55.7116592,11.7655163 55.9497704,11.6689655 56.2377231,11.6689655 C56.5256759,11.6689655 56.7637871,11.7655163 56.9520639,11.9586207 C57.1403407,12.1517251 57.2344777,12.3917227 57.2344777,12.6786207 L57.2344777,12.7448276 C57.5002803,12.4137914 57.8712907,12.1241392 58.3475203,11.8758621 C58.8237499,11.627585 59.3221222,11.5034483 59.8426522,11.5034483 Z M59.5934635,18.8689655 C60.3022703,18.8689655 60.8837047,18.6041406 61.337784,18.0744828 C61.7918633,17.5448249 62.0188996,16.8827626 62.0188996,16.0882759 C62.0188996,15.2937891 61.7946321,14.6344854 61.3460903,14.1103448 C60.8975485,13.5862043 60.3133454,13.3241379 59.5934635,13.3241379 C58.8735816,13.3241379 58.2866098,13.5862043 57.8325305,14.1103448 C57.3784511,14.6344854 57.1514148,15.2937891 57.1514148,16.0882759 C57.1514148,16.8827626 57.3784511,17.5448249 57.8325305,18.0744828 C58.2866098,18.6041406 58.8735816,18.8689655 59.5934635,18.8689655 Z M70.4938997,10.0303448 C70.1173461,10.0303448 69.8515475,10.13793 69.696496,10.3531034 C69.5414445,10.5682769 69.46392,10.8027574 69.46392,11.0565517 L69.46392,11.8344828 L70.9756644,11.8344828 C71.2414669,11.8344828 71.4629657,11.9199991 71.6401674,12.0910345 C71.8173691,12.2620698 71.9059686,12.4799987 71.9059686,12.7448276 C71.9059686,13.0096565 71.8173691,13.2275854 71.6401674,13.3986207 C71.4629657,13.569656 71.2414669,13.6551724 70.9756644,13.6551724 L69.46392,13.6551724 L69.46392,19.5144828 C69.46392,19.8013807 69.369783,20.0413783 69.1815062,20.2344828 C68.9932294,20.4275872 68.7551181,20.5241379 68.4671654,20.5241379 C68.1792126,20.5241379 67.9411014,20.4275872 67.7528246,20.2344828 C67.5645478,20.0413783 67.4704108,19.8013807 67.4704108,19.5144828 L67.4704108,13.6551724 L66.5733317,13.6551724 C66.3075292,13.6551724 66.0860304,13.569656 65.9088287,13.3986207 C65.731627,13.2275854 65.6430275,13.0096565 65.6430275,12.7448276 C65.6430275,12.4799987 65.731627,12.2620698 65.9088287,12.0910345 C66.0860304,11.9199991 66.3075292,11.8344828 66.5733317,11.8344828 L67.4704108,11.8344828 L67.4704108,11.0731034 C67.4704108,10.2455131 67.7555905,9.57241639 68.3259585,9.0537931 C68.8963265,8.53516982 69.7186407,8.27586207 70.792926,8.27586207 C71.202705,8.27586207 71.5598718,8.35861986 71.8644372,8.52413793 C72.1690026,8.689656 72.321283,8.94344657 72.321283,9.28551724 C72.321283,9.55034615 72.2437585,9.76551641 72.088707,9.93103448 C71.9336555,10.0965526 71.7453815,10.1793103 71.5238794,10.1793103 C71.4685039,10.1793103 71.4103604,10.1737932 71.3494473,10.1627586 C71.2885343,10.1517241 71.2248533,10.1406897 71.1584027,10.1296552 C70.8926002,10.0634479 70.6711014,10.0303448 70.4938997,10.0303448 Z M82.8328906,16.1048276 C82.8328906,16.9875906 82.6335416,17.7793068 82.2348378,18.48 C81.836134,19.1806932 81.2906932,19.724136 80.5984991,20.1103448 C79.906305,20.4965537 79.1449028,20.6896552 78.3142699,20.6896552 C77.4725618,20.6896552 76.708391,20.4965537 76.0217344,20.1103448 C75.3350778,19.724136 74.7924057,19.1806932 74.3937019,18.48 C73.9949981,17.7793068 73.7956492,16.9875906 73.7956492,16.1048276 C73.7956492,15.2220646 73.9949981,14.4303483 74.3937019,13.7296552 C74.7924057,13.028962 75.3350778,12.4827606 76.0217344,12.0910345 C76.708391,11.6993084 77.4725618,11.5034483 78.3142699,11.5034483 C79.1449028,11.5034483 79.906305,11.6993084 80.5984991,12.0910345 C81.2906932,12.4827606 81.836134,13.028962 82.2348378,13.7296552 C82.6335416,14.4303483 82.8328906,15.2220646 82.8328906,16.1048276 Z M80.8393814,16.1048276 C80.8393814,15.5641352 80.7258633,15.0813814 80.4988236,14.6565517 C80.271784,14.231722 79.9672231,13.9034494 79.5851319,13.6717241 C79.2030408,13.4399988 78.7794243,13.3241379 78.3142699,13.3241379 C77.8491154,13.3241379 77.425499,13.4399988 77.0434078,13.6717241 C76.6613166,13.9034494 76.3567558,14.231722 76.1297161,14.6565517 C75.9026764,15.0813814 75.7891583,15.5641352 75.7891583,16.1048276 C75.7891583,16.6455199 75.9026764,17.1255151 76.1297161,17.5448276 C76.3567558,17.96414 76.6613166,18.289654 77.0434078,18.5213793 C77.425499,18.7531046 77.8491154,18.8689655 78.3142699,18.8689655 C78.7794243,18.8689655 79.2030408,18.7531046 79.5851319,18.5213793 C79.9672231,18.289654 80.271784,17.96414 80.4988236,17.5448276 C80.7258633,17.1255151 80.8393814,16.6455199 80.8393814,16.1048276 Z M87.7958977,19.5144828 C87.7958977,19.8013807 87.698992,20.0413783 87.5051776,20.2344828 C87.3113633,20.4275872 87.0704833,20.5241379 86.7825305,20.5241379 C86.5056529,20.5241379 86.2730792,20.4275872 86.0848024,20.2344828 C85.8965256,20.0413783 85.8023886,19.8013807 85.8023886,19.5144828 L85.8023886,9.28551724 C85.8023886,8.99861926 85.8992943,8.75862166 86.0931086,8.56551724 C86.286923,8.37241283 86.5278029,8.27586207 86.8157557,8.27586207 C87.0926334,8.27586207 87.3252071,8.37241283 87.5134839,8.56551724 C87.7017607,8.75862166 87.7958977,8.99861926 87.7958977,9.28551724 L87.7958977,19.5144828 Z M93.140994,19.5144828 C93.140994,19.8013807 93.046857,20.0413783 92.85858,20.2344828 C92.670303,20.4275872 92.432192,20.5241379 92.144239,20.5241379 C91.856287,20.5241379 91.618176,20.4275872 91.429899,20.2344828 C91.241622,20.0413783 91.147485,19.8013807 91.147485,19.5144828 L91.147485,12.6786207 C91.147485,12.3917227 91.241622,12.1517251 91.429899,11.9586207 C91.618176,11.7655163 91.856287,11.6689655 92.144239,11.6689655 C92.432192,11.6689655 92.670303,11.7655163 92.85858,11.9586207 C93.046857,12.1517251 93.140994,12.3917227 93.140994,12.6786207 L93.140994,19.5144828 Z M92.127627,10.5931034 C91.751073,10.5931034 91.485275,10.5324144 91.330223,10.4110345 C91.175172,10.2896546 91.097647,10.0744843 91.097647,9.76551724 L91.097647,9.45103448 C91.097647,9.14206742 91.180709,8.92689716 91.346836,8.80551724 C91.512962,8.68413732 91.778761,8.62344828 92.144239,8.62344828 C92.531868,8.62344828 92.803204,8.68413732 92.958256,8.80551724 C93.113307,8.92689716 93.190832,9.14206742 93.190832,9.45103448 L93.190832,9.76551724 C93.190832,10.0855188 93.110538,10.3034477 92.949949,10.4193103 C92.78936,10.535173 92.515256,10.5931034 92.127627,10.5931034 Z M104.86532,16.1048276 C104.86532,16.9875906 104.665971,17.7793068 104.267267,18.48 C103.868563,19.1806932 103.323122,19.724136 102.630928,20.1103448 C101.938734,20.4965537 101.177332,20.6896552 100.346699,20.6896552 C99.504991,20.6896552 98.74082,20.4965537 98.054163,20.1103448 C97.367507,19.724136 96.824835,19.1806932 96.426131,18.48 C96.027427,17.7793068 95.828078,16.9875906 95.828078,16.1048276 C95.828078,15.2220646 96.027427,14.4303483 96.426131,13.7296552 C96.824835,13.028962 97.367507,12.4827606 98.054163,12.0910345 C98.74082,11.6993084 99.504991,11.5034483 100.346699,11.5034483 C101.177332,11.5034483 101.938734,11.6993084 102.630928,12.0910345 C103.323122,12.4827606 103.868563,13.028962 104.267267,13.7296552 C104.665971,14.4303483 104.86532,15.2220646 104.86532,16.1048276 Z M102.871811,16.1048276 C102.871811,15.5641352 102.758292,15.0813814 102.531253,14.6565517 C102.304213,14.231722 101.999652,13.9034494 101.617561,13.6717241 C101.23547,13.4399988 100.811853,13.3241379 100.346699,13.3241379 C99.881545,13.3241379 99.457928,13.4399988 99.075837,13.6717241 C98.693746,13.9034494 98.389185,14.231722 98.162145,14.6565517 C97.935106,15.0813814 97.821587,15.5641352 97.821587,16.1048276 C97.821587,16.6455199 97.935106,17.1255151 98.162145,17.5448276 C98.389185,17.96414 98.693746,18.289654 99.075837,18.5213793 C99.457928,18.7531046 99.881545,18.8689655 100.346699,18.8689655 C100.811853,18.8689655 101.23547,18.7531046 101.617561,18.5213793 C101.999652,18.289654 102.304213,17.96414 102.531253,17.5448276 C102.758292,17.1255151 102.871811,16.6455199 102.871811,16.1048276 Z" id="Appfolio" fill="#1E3056"></path>
        </g>
    </g>
</svg>